<mxfile host="Electron" modified="2024-05-03T14:41:30.409Z" agent="Mozilla/5.0 (X11; Linux x86_64) AppleWebKit/537.36 (KHTML, like Gecko) draw.io/24.2.5 Chrome/120.0.6099.109 Electron/28.1.0 Safari/537.36" etag="xmD1hB-tAr8KiLSA0Gui" version="24.2.5" type="device">
  <diagram name="Seite-1" id="VSUwEdf-AO04GTv7WZ7c">
    <mxGraphModel dx="1674" dy="835" grid="1" gridSize="10" guides="1" tooltips="1" connect="1" arrows="1" fold="1" page="1" pageScale="1" pageWidth="827" pageHeight="1169" math="0" shadow="0">
      <root>
        <mxCell id="0" />
        <mxCell id="1" parent="0" />
        <mxCell id="_yZCAvxYhUye2rP7oaq0-19" value="" style="rounded=0;whiteSpace=wrap;html=1;fillColor=#fff2cc;strokeColor=#d6b656;" parent="1" vertex="1">
          <mxGeometry x="40" y="200" width="640" height="300" as="geometry" />
        </mxCell>
        <mxCell id="_yZCAvxYhUye2rP7oaq0-1" value="RestClient" style="rounded=0;whiteSpace=wrap;html=1;" parent="1" vertex="1">
          <mxGeometry x="120" y="440" width="540" height="40" as="geometry" />
        </mxCell>
        <mxCell id="_yZCAvxYhUye2rP7oaq0-3" value="&amp;lt;FormNew&amp;gt;" style="whiteSpace=wrap;html=1;" parent="1" vertex="1">
          <mxGeometry x="120" y="340" width="120" height="40" as="geometry" />
        </mxCell>
        <mxCell id="_yZCAvxYhUye2rP7oaq0-4" value="" style="endArrow=classic;html=1;rounded=0;exitX=0.5;exitY=1;exitDx=0;exitDy=0;" parent="1" source="_yZCAvxYhUye2rP7oaq0-3" edge="1">
          <mxGeometry width="50" height="50" relative="1" as="geometry">
            <mxPoint x="200" y="450" as="sourcePoint" />
            <mxPoint x="180" y="440" as="targetPoint" />
          </mxGeometry>
        </mxCell>
        <mxCell id="_yZCAvxYhUye2rP7oaq0-14" value="$contactToDelete" style="rounded=0;whiteSpace=wrap;html=1;" parent="1" vertex="1">
          <mxGeometry x="540" y="280" width="120" height="30" as="geometry" />
        </mxCell>
        <mxCell id="_yZCAvxYhUye2rP7oaq0-20" value="Frontend" style="text;html=1;align=center;verticalAlign=middle;whiteSpace=wrap;rounded=0;fontStyle=1;fontSize=20;" parent="1" vertex="1">
          <mxGeometry x="40" y="200" width="100" height="30" as="geometry" />
        </mxCell>
        <mxCell id="XMQoJ8oN_OSprOM8ocaJ-1" value="&amp;lt;List&amp;gt;" style="whiteSpace=wrap;html=1;" parent="1" vertex="1">
          <mxGeometry x="260" y="340" width="120" height="40" as="geometry" />
        </mxCell>
        <mxCell id="XMQoJ8oN_OSprOM8ocaJ-2" value="$visibleComponent" style="rounded=0;whiteSpace=wrap;html=1;" parent="1" vertex="1">
          <mxGeometry x="120" y="240" width="540" height="30" as="geometry" />
        </mxCell>
        <mxCell id="XMQoJ8oN_OSprOM8ocaJ-4" value="" style="endArrow=classic;html=1;rounded=0;exitX=0.5;exitY=1;exitDx=0;exitDy=0;" parent="1" source="XMQoJ8oN_OSprOM8ocaJ-1" edge="1">
          <mxGeometry width="50" height="50" relative="1" as="geometry">
            <mxPoint x="370" y="480" as="sourcePoint" />
            <mxPoint x="320" y="440" as="targetPoint" />
          </mxGeometry>
        </mxCell>
        <mxCell id="XMQoJ8oN_OSprOM8ocaJ-6" value="getAllContacts(filter)" style="text;html=1;align=center;verticalAlign=middle;whiteSpace=wrap;rounded=0;" parent="1" vertex="1">
          <mxGeometry x="210" y="410" width="110" height="20" as="geometry" />
        </mxCell>
        <mxCell id="XMQoJ8oN_OSprOM8ocaJ-8" value="addContact(contact)" style="text;html=1;align=right;verticalAlign=middle;whiteSpace=wrap;rounded=0;" parent="1" vertex="1">
          <mxGeometry x="60" y="410" width="120" height="20" as="geometry" />
        </mxCell>
        <mxCell id="_yZCAvxYhUye2rP7oaq0-12" value="" style="rounded=0;whiteSpace=wrap;html=1;fillColor=#d5e8d4;strokeColor=#82b366;" parent="1" vertex="1">
          <mxGeometry x="40" y="540" width="640" height="341" as="geometry" />
        </mxCell>
        <mxCell id="_yZCAvxYhUye2rP7oaq0-5" value="restapi.js" style="rounded=0;whiteSpace=wrap;html=1;" parent="1" vertex="1">
          <mxGeometry x="120" y="581" width="540" height="40" as="geometry" />
        </mxCell>
        <mxCell id="_yZCAvxYhUye2rP7oaq0-6" value="dao.js" style="rounded=0;whiteSpace=wrap;html=1;" parent="1" vertex="1">
          <mxGeometry x="120" y="721" width="540" height="40" as="geometry" />
        </mxCell>
        <mxCell id="_yZCAvxYhUye2rP7oaq0-7" value="" style="endArrow=classic;html=1;rounded=0;entryX=0.5;entryY=0;entryDx=0;entryDy=0;" parent="1" edge="1">
          <mxGeometry width="50" height="50" relative="1" as="geometry">
            <mxPoint x="180" y="621" as="sourcePoint" />
            <mxPoint x="180" y="721" as="targetPoint" />
          </mxGeometry>
        </mxCell>
        <mxCell id="_yZCAvxYhUye2rP7oaq0-8" value="" style="endArrow=classic;html=1;rounded=0;exitX=0.5;exitY=1;exitDx=0;exitDy=0;" parent="1" edge="1">
          <mxGeometry width="50" height="50" relative="1" as="geometry">
            <mxPoint x="320" y="481" as="sourcePoint" />
            <mxPoint x="320" y="581" as="targetPoint" />
            <Array as="points" />
          </mxGeometry>
        </mxCell>
        <mxCell id="_yZCAvxYhUye2rP7oaq0-9" value="SQLite" style="shape=datastore;whiteSpace=wrap;html=1;" parent="1" vertex="1">
          <mxGeometry x="360" y="801" width="60" height="60" as="geometry" />
        </mxCell>
        <mxCell id="_yZCAvxYhUye2rP7oaq0-10" value="" style="endArrow=classic;html=1;rounded=0;exitX=0.37;exitY=0.993;exitDx=0;exitDy=0;exitPerimeter=0;entryX=0.15;entryY=0.05;entryDx=0;entryDy=0;entryPerimeter=0;" parent="1" source="_yZCAvxYhUye2rP7oaq0-6" target="_yZCAvxYhUye2rP7oaq0-9" edge="1">
          <mxGeometry width="50" height="50" relative="1" as="geometry">
            <mxPoint x="390" y="761" as="sourcePoint" />
            <mxPoint x="390" y="701" as="targetPoint" />
            <Array as="points">
              <mxPoint x="320" y="801" />
            </Array>
          </mxGeometry>
        </mxCell>
        <mxCell id="_yZCAvxYhUye2rP7oaq0-13" value="Backend" style="text;html=1;align=center;verticalAlign=middle;whiteSpace=wrap;rounded=0;fontStyle=1;fontSize=20;" parent="1" vertex="1">
          <mxGeometry x="40" y="540" width="100" height="30" as="geometry" />
        </mxCell>
        <mxCell id="XMQoJ8oN_OSprOM8ocaJ-11" value="&lt;span style=&quot;background-color: initial;&quot;&gt;addKontakt(kontakt)&lt;/span&gt;" style="text;html=1;align=right;verticalAlign=middle;whiteSpace=wrap;rounded=0;" parent="1" vertex="1">
          <mxGeometry x="64.5" y="690" width="111" height="20" as="geometry" />
        </mxCell>
        <mxCell id="baks4HbCWpifaE5G5cTr-1" value="&amp;lt;FormUpdate&amp;gt;" style="whiteSpace=wrap;html=1;" parent="1" vertex="1">
          <mxGeometry x="400" y="340" width="120" height="40" as="geometry" />
        </mxCell>
        <mxCell id="baks4HbCWpifaE5G5cTr-2" value="&amp;lt;ConfirmDelete&amp;gt;" style="whiteSpace=wrap;html=1;" parent="1" vertex="1">
          <mxGeometry x="540" y="340" width="120" height="40" as="geometry" />
        </mxCell>
        <mxCell id="baks4HbCWpifaE5G5cTr-3" value="$contactToUpdate" style="rounded=0;whiteSpace=wrap;html=1;" parent="1" vertex="1">
          <mxGeometry x="400" y="280" width="120" height="30" as="geometry" />
        </mxCell>
        <mxCell id="baks4HbCWpifaE5G5cTr-4" value="" style="endArrow=classic;html=1;rounded=0;exitX=0.5;exitY=1;exitDx=0;exitDy=0;" parent="1" edge="1">
          <mxGeometry width="50" height="50" relative="1" as="geometry">
            <mxPoint x="459.65999999999997" y="380" as="sourcePoint" />
            <mxPoint x="459.65999999999997" y="440" as="targetPoint" />
          </mxGeometry>
        </mxCell>
        <mxCell id="baks4HbCWpifaE5G5cTr-5" value="updateContact(contact)" style="text;html=1;align=right;verticalAlign=middle;whiteSpace=wrap;rounded=0;" parent="1" vertex="1">
          <mxGeometry x="330" y="410" width="130" height="20" as="geometry" />
        </mxCell>
        <mxCell id="baks4HbCWpifaE5G5cTr-6" value="deleteContact(id)" style="text;html=1;align=right;verticalAlign=middle;whiteSpace=wrap;rounded=0;" parent="1" vertex="1">
          <mxGeometry x="500" y="410" width="100" height="20" as="geometry" />
        </mxCell>
        <mxCell id="baks4HbCWpifaE5G5cTr-7" value="" style="endArrow=classic;html=1;rounded=0;exitX=0.5;exitY=1;exitDx=0;exitDy=0;" parent="1" edge="1">
          <mxGeometry width="50" height="50" relative="1" as="geometry">
            <mxPoint x="599.66" y="380" as="sourcePoint" />
            <mxPoint x="599.66" y="440" as="targetPoint" />
          </mxGeometry>
        </mxCell>
        <mxCell id="baks4HbCWpifaE5G5cTr-8" value="" style="endArrow=classic;html=1;rounded=0;entryX=0.5;entryY=1;entryDx=0;entryDy=0;" parent="1" source="baks4HbCWpifaE5G5cTr-2" target="_yZCAvxYhUye2rP7oaq0-14" edge="1">
          <mxGeometry width="50" height="50" relative="1" as="geometry">
            <mxPoint x="420" y="430" as="sourcePoint" />
            <mxPoint x="470" y="380" as="targetPoint" />
          </mxGeometry>
        </mxCell>
        <mxCell id="baks4HbCWpifaE5G5cTr-12" value="" style="endArrow=classic;html=1;rounded=0;exitX=0.5;exitY=0;exitDx=0;exitDy=0;entryX=0.5;entryY=1;entryDx=0;entryDy=0;" parent="1" source="baks4HbCWpifaE5G5cTr-1" target="baks4HbCWpifaE5G5cTr-3" edge="1">
          <mxGeometry width="50" height="50" relative="1" as="geometry">
            <mxPoint x="420" y="430" as="sourcePoint" />
            <mxPoint x="470" y="380" as="targetPoint" />
          </mxGeometry>
        </mxCell>
        <mxCell id="baks4HbCWpifaE5G5cTr-15" value="" style="endArrow=classic;html=1;rounded=0;exitX=0.112;exitY=0.997;exitDx=0;exitDy=0;exitPerimeter=0;entryX=0.11;entryY=0.014;entryDx=0;entryDy=0;entryPerimeter=0;" parent="1" edge="1">
          <mxGeometry width="50" height="50" relative="1" as="geometry">
            <mxPoint x="180.53999999999996" y="479.15999999999997" as="sourcePoint" />
            <mxPoint x="179.45999999999998" y="580.8399999999999" as="targetPoint" />
          </mxGeometry>
        </mxCell>
        <mxCell id="baks4HbCWpifaE5G5cTr-16" value="HTTP:&amp;nbsp;&lt;span style=&quot;background-color: initial;&quot;&gt;POST&lt;/span&gt;" style="text;html=1;align=right;verticalAlign=middle;whiteSpace=wrap;rounded=0;" parent="1" vertex="1">
          <mxGeometry x="100" y="510" width="80" height="20" as="geometry" />
        </mxCell>
        <mxCell id="baks4HbCWpifaE5G5cTr-18" value="HTTP:&amp;nbsp;&lt;span style=&quot;background-color: initial;&quot;&gt;PUT&lt;/span&gt;" style="text;html=1;align=right;verticalAlign=middle;whiteSpace=wrap;rounded=0;" parent="1" vertex="1">
          <mxGeometry x="379" y="510" width="80" height="20" as="geometry" />
        </mxCell>
        <mxCell id="baks4HbCWpifaE5G5cTr-19" value="" style="endArrow=classic;html=1;rounded=0;exitX=0.5;exitY=1;exitDx=0;exitDy=0;" parent="1" edge="1">
          <mxGeometry width="50" height="50" relative="1" as="geometry">
            <mxPoint x="459" y="481" as="sourcePoint" />
            <mxPoint x="460" y="581" as="targetPoint" />
            <Array as="points" />
          </mxGeometry>
        </mxCell>
        <mxCell id="baks4HbCWpifaE5G5cTr-20" value="HTTP: GET" style="text;html=1;align=right;verticalAlign=middle;whiteSpace=wrap;rounded=0;" parent="1" vertex="1">
          <mxGeometry x="240" y="510" width="80" height="20" as="geometry" />
        </mxCell>
        <mxCell id="baks4HbCWpifaE5G5cTr-21" value="" style="endArrow=classic;html=1;rounded=0;exitX=0.5;exitY=1;exitDx=0;exitDy=0;" parent="1" edge="1">
          <mxGeometry width="50" height="50" relative="1" as="geometry">
            <mxPoint x="599.31" y="481" as="sourcePoint" />
            <mxPoint x="600" y="581" as="targetPoint" />
            <Array as="points" />
          </mxGeometry>
        </mxCell>
        <mxCell id="baks4HbCWpifaE5G5cTr-22" value="HTTP: DELETE" style="text;html=1;align=right;verticalAlign=middle;whiteSpace=wrap;rounded=0;" parent="1" vertex="1">
          <mxGeometry x="510" y="510" width="90" height="20" as="geometry" />
        </mxCell>
        <mxCell id="baks4HbCWpifaE5G5cTr-23" value="&lt;div&gt;&lt;span style=&quot;background-color: initial;&quot;&gt;deleteKontakt(id)&lt;/span&gt;&lt;br&gt;&lt;/div&gt;" style="text;html=1;align=right;verticalAlign=middle;whiteSpace=wrap;rounded=0;" parent="1" vertex="1">
          <mxGeometry x="500" y="690" width="101" height="20" as="geometry" />
        </mxCell>
        <mxCell id="baks4HbCWpifaE5G5cTr-24" value="" style="endArrow=classic;html=1;rounded=0;entryX=0.5;entryY=0;entryDx=0;entryDy=0;" parent="1" edge="1">
          <mxGeometry width="50" height="50" relative="1" as="geometry">
            <mxPoint x="319.31" y="621" as="sourcePoint" />
            <mxPoint x="319.31" y="721" as="targetPoint" />
          </mxGeometry>
        </mxCell>
        <mxCell id="baks4HbCWpifaE5G5cTr-25" value="" style="endArrow=classic;html=1;rounded=0;entryX=0.5;entryY=0;entryDx=0;entryDy=0;" parent="1" edge="1">
          <mxGeometry width="50" height="50" relative="1" as="geometry">
            <mxPoint x="458.31" y="621" as="sourcePoint" />
            <mxPoint x="458.31" y="721" as="targetPoint" />
          </mxGeometry>
        </mxCell>
        <mxCell id="baks4HbCWpifaE5G5cTr-26" value="" style="endArrow=classic;html=1;rounded=0;entryX=0.5;entryY=0;entryDx=0;entryDy=0;" parent="1" edge="1">
          <mxGeometry width="50" height="50" relative="1" as="geometry">
            <mxPoint x="599.31" y="621" as="sourcePoint" />
            <mxPoint x="599.31" y="721" as="targetPoint" />
          </mxGeometry>
        </mxCell>
        <mxCell id="baks4HbCWpifaE5G5cTr-27" value="&lt;div&gt;&lt;span style=&quot;background-color: initial;&quot;&gt;updateKontakt(kontakt)&lt;/span&gt;&lt;/div&gt;" style="text;html=1;align=right;verticalAlign=middle;whiteSpace=wrap;rounded=0;" parent="1" vertex="1">
          <mxGeometry x="330" y="690" width="130" height="20" as="geometry" />
        </mxCell>
        <mxCell id="baks4HbCWpifaE5G5cTr-28" value="getAllKontakte(filter)" style="text;html=1;align=right;verticalAlign=middle;whiteSpace=wrap;rounded=0;" parent="1" vertex="1">
          <mxGeometry x="210" y="690" width="110" height="20" as="geometry" />
        </mxCell>
        <mxCell id="baks4HbCWpifaE5G5cTr-29" value="" style="endArrow=classic;html=1;rounded=0;exitX=0.112;exitY=0.997;exitDx=0;exitDy=0;exitPerimeter=0;entryX=0;entryY=0.3;entryDx=0;entryDy=0;" parent="1" source="_yZCAvxYhUye2rP7oaq0-6" target="_yZCAvxYhUye2rP7oaq0-9" edge="1">
          <mxGeometry width="50" height="50" relative="1" as="geometry">
            <mxPoint x="420" y="761" as="sourcePoint" />
            <mxPoint x="470" y="711" as="targetPoint" />
            <Array as="points">
              <mxPoint x="180" y="819" />
            </Array>
          </mxGeometry>
        </mxCell>
        <mxCell id="baks4HbCWpifaE5G5cTr-30" value="SQL: INSERT INTO" style="text;html=1;align=center;verticalAlign=middle;whiteSpace=wrap;rounded=0;" parent="1" vertex="1">
          <mxGeometry x="70" y="770" width="110" height="20" as="geometry" />
        </mxCell>
        <mxCell id="baks4HbCWpifaE5G5cTr-31" value="SQL: UPDATE" style="text;html=1;align=center;verticalAlign=middle;whiteSpace=wrap;rounded=0;" parent="1" vertex="1">
          <mxGeometry x="370" y="770" width="90" height="20" as="geometry" />
        </mxCell>
        <mxCell id="baks4HbCWpifaE5G5cTr-32" value="" style="endArrow=classic;html=1;rounded=0;exitX=0.63;exitY=1;exitDx=0;exitDy=0;exitPerimeter=0;entryX=0.85;entryY=0.05;entryDx=0;entryDy=0;entryPerimeter=0;" parent="1" source="_yZCAvxYhUye2rP7oaq0-6" target="_yZCAvxYhUye2rP7oaq0-9" edge="1">
          <mxGeometry width="50" height="50" relative="1" as="geometry">
            <mxPoint x="400" y="621" as="sourcePoint" />
            <mxPoint x="450" y="571" as="targetPoint" />
            <Array as="points">
              <mxPoint x="460" y="801" />
            </Array>
          </mxGeometry>
        </mxCell>
        <mxCell id="baks4HbCWpifaE5G5cTr-33" value="SQL: SELECT" style="text;html=1;align=center;verticalAlign=middle;whiteSpace=wrap;rounded=0;" parent="1" vertex="1">
          <mxGeometry x="239" y="770" width="81" height="20" as="geometry" />
        </mxCell>
        <mxCell id="baks4HbCWpifaE5G5cTr-34" value="" style="endArrow=classic;html=1;rounded=0;entryX=1;entryY=0.3;entryDx=0;entryDy=0;exitX=0.889;exitY=1.004;exitDx=0;exitDy=0;exitPerimeter=0;" parent="1" source="_yZCAvxYhUye2rP7oaq0-6" target="_yZCAvxYhUye2rP7oaq0-9" edge="1">
          <mxGeometry width="50" height="50" relative="1" as="geometry">
            <mxPoint x="600" y="770" as="sourcePoint" />
            <mxPoint x="450" y="571" as="targetPoint" />
            <Array as="points">
              <mxPoint x="600" y="820" />
            </Array>
          </mxGeometry>
        </mxCell>
        <mxCell id="baks4HbCWpifaE5G5cTr-35" value="SQL: DELETE FROM" style="text;html=1;align=center;verticalAlign=middle;whiteSpace=wrap;rounded=0;" parent="1" vertex="1">
          <mxGeometry x="481" y="770" width="119" height="20" as="geometry" />
        </mxCell>
        <mxCell id="NLwBJKxFr82nS86-HNt--1" value="" style="endArrow=classic;html=1;rounded=0;entryX=0;entryY=0.5;entryDx=0;entryDy=0;" parent="1" target="baks4HbCWpifaE5G5cTr-3" edge="1">
          <mxGeometry width="50" height="50" relative="1" as="geometry">
            <mxPoint x="295" y="340" as="sourcePoint" />
            <mxPoint x="345" y="290" as="targetPoint" />
            <Array as="points">
              <mxPoint x="295" y="295" />
            </Array>
          </mxGeometry>
        </mxCell>
        <mxCell id="NLwBJKxFr82nS86-HNt--2" value="" style="endArrow=classic;html=1;rounded=0;entryX=0.25;entryY=1;entryDx=0;entryDy=0;" parent="1" target="_yZCAvxYhUye2rP7oaq0-14" edge="1">
          <mxGeometry width="50" height="50" relative="1" as="geometry">
            <mxPoint x="340" y="340" as="sourcePoint" />
            <mxPoint x="390" y="290" as="targetPoint" />
            <Array as="points">
              <mxPoint x="340" y="330" />
              <mxPoint x="570" y="330" />
            </Array>
          </mxGeometry>
        </mxCell>
        <mxCell id="NLwBJKxFr82nS86-HNt--4" value="&lt;font style=&quot;font-size: 20px;&quot;&gt;&lt;b&gt;C&lt;/b&gt;reate&lt;/font&gt;" style="text;html=1;align=center;verticalAlign=middle;resizable=0;points=[];autosize=1;strokeColor=none;fillColor=none;" parent="1" vertex="1">
          <mxGeometry x="140" y="140" width="80" height="40" as="geometry" />
        </mxCell>
        <mxCell id="NLwBJKxFr82nS86-HNt--5" value="&lt;font style=&quot;font-size: 20px;&quot;&gt;&lt;b&gt;R&lt;/b&gt;ead&lt;/font&gt;" style="text;html=1;align=center;verticalAlign=middle;resizable=0;points=[];autosize=1;strokeColor=none;fillColor=none;" parent="1" vertex="1">
          <mxGeometry x="285" y="140" width="70" height="40" as="geometry" />
        </mxCell>
        <mxCell id="NLwBJKxFr82nS86-HNt--6" value="&lt;span style=&quot;font-size: 20px;&quot;&gt;&lt;b&gt;U&lt;/b&gt;pdate&lt;/span&gt;" style="text;html=1;align=center;verticalAlign=middle;resizable=0;points=[];autosize=1;strokeColor=none;fillColor=none;" parent="1" vertex="1">
          <mxGeometry x="415" y="140" width="90" height="40" as="geometry" />
        </mxCell>
        <mxCell id="NLwBJKxFr82nS86-HNt--7" value="&lt;span style=&quot;font-size: 20px;&quot;&gt;&lt;b&gt;D&lt;/b&gt;elete&lt;/span&gt;" style="text;html=1;align=center;verticalAlign=middle;resizable=0;points=[];autosize=1;strokeColor=none;fillColor=none;" parent="1" vertex="1">
          <mxGeometry x="560" y="140" width="80" height="40" as="geometry" />
        </mxCell>
      </root>
    </mxGraphModel>
  </diagram>
</mxfile>
